<svg width="207" height="197" viewBox="0 0 207 197" fill="none" xmlns="http://www.w3.org/2000/svg">
<g clip-path="url(#clip0_167_167)">
<path d="M81.9872 4.24596L131.833 53.9213C140.396 63.4451 145.607 69.5901 145.543 83.5814L207 144.869L199.739 152.111L140.598 93.1294C135.743 88.2869 135.799 88.045 136.329 85.6821C138.059 78.2026 133.499 68.3038 128.239 63.0581C110.708 45.5749 93.1579 28.1119 75.6276 10.6288C70.1049 5.11689 61.2913 13.8867 66.8059 19.3865L85.2378 37.7688L85.3348 37.8615C85.8604 38.3897 85.8604 39.2526 85.3348 39.7768L80.8754 44.2242C80.7496 44.3497 80.6002 44.4494 80.4358 44.5173C80.2714 44.5853 80.0952 44.6203 79.9172 44.6203C79.7392 44.6203 79.563 44.5853 79.3986 44.5173C79.2342 44.4494 79.0848 44.3497 78.959 44.2242L50.0275 15.3705C44.5938 9.95137 35.679 18.6204 41.226 24.1524L70.1534 53.002C70.6831 53.5302 70.6831 54.3931 70.1534 54.9173L65.4353 59.6227C65.1805 59.8764 64.8351 60.0188 64.4751 60.0188C64.1151 60.0188 63.7697 59.8764 63.5149 59.6227L24.8237 21.0356C19.3657 15.5923 10.4873 24.2613 16.0181 29.7772L54.7295 68.3845C54.9839 68.6386 55.1267 68.983 55.1267 69.3421C55.1267 69.7012 54.9839 70.0456 54.7295 70.2997L50.1246 74.8963C49.8688 75.1482 49.5238 75.2894 49.1644 75.2894C48.8049 75.2894 48.4599 75.1482 48.2042 74.8963L19.3697 46.1394C13.8308 40.6114 5.11825 49.482 10.5884 54.9374C17.5827 61.913 25.3856 69.7755 33.1967 77.5938C40.0616 84.5209 46.9266 91.4037 55.7241 100.182C57.1553 101.798 69.737 113.161 60.4705 114.85C53.9371 116.645 44.0844 114.842 38.7436 117.31C35.202 119.036 33.512 122.616 35.5254 126.068C36.3542 127.455 37.7652 128.64 39.7948 129.39C43.203 130.66 48.8672 130.14 52.6231 130.14C62.2454 130.14 79.8606 130.124 92.3655 128.426C98.7777 127.568 102.489 130.346 106.294 134.14L162.022 189.722L154.728 197L95.2481 137.68C83.2284 139.466 67.1253 139.236 56.0637 139.087C49.878 138.99 41.2786 139.773 35.679 137.438C23.0407 132.132 22.2483 116.124 34.3449 109.693C39.3784 107.044 44.2542 107.262 49.7284 107.101C34.5066 91.9238 19.4182 76.497 4.16815 61.296C-3.59435 53.5504 0.109007 40.3534 10.1154 36.6479C-2.87875 23.6887 13.2689 5.83057 26.4409 11.3828C28.5311 12.2658 30.0472 13.4875 31.6118 15.056C35.5295 5.01609 48.4589 1.04851 56.3871 8.95545L57.3453 9.91105C61.8815 0.238062 74.0266 -3.6892 81.9872 4.24596ZM179.051 143.817C182.091 143.817 184.844 145.047 186.829 147.03C187.853 148.048 188.664 149.257 189.217 150.589C189.77 151.92 190.054 153.347 190.052 154.788C190.052 157.82 188.819 160.566 186.829 162.546C185.809 163.567 184.597 164.376 183.262 164.927C181.927 165.479 180.496 165.762 179.051 165.76C176.015 165.76 173.257 164.53 171.272 162.546C170.249 161.528 169.438 160.319 168.885 158.987C168.332 157.656 168.049 156.229 168.05 154.788C168.05 151.76 169.287 149.01 171.272 147.03C172.292 146.01 173.505 145.201 174.84 144.649C176.175 144.098 177.606 143.815 179.051 143.817ZM183.094 150.756C182.563 150.226 181.933 149.806 181.239 149.519C180.545 149.233 179.802 149.086 179.051 149.087C177.474 149.087 176.043 149.728 175.008 150.756C173.936 151.826 173.334 153.276 173.334 154.788C173.334 156.3 173.936 157.751 175.008 158.82C176.043 159.848 177.474 160.49 179.051 160.49C180.632 160.49 182.063 159.848 183.094 158.82C184.129 157.792 184.768 156.361 184.768 154.788C184.768 153.216 184.129 151.788 183.094 150.756ZM148.441 141.72C151.3 141.72 153.616 144.031 153.616 146.881C153.616 149.732 151.3 152.042 148.441 152.042C145.583 152.042 143.266 149.732 143.266 146.881C143.266 144.031 145.583 141.72 148.441 141.72ZM125.655 111.943C128.696 111.943 131.449 113.173 133.434 115.157C134.457 116.174 135.268 117.384 135.821 118.715C136.374 120.046 136.658 121.473 136.656 122.914C136.656 125.947 135.423 128.692 133.434 130.672C132.414 131.693 131.201 132.502 129.866 133.054C128.531 133.605 127.1 133.888 125.655 133.886C122.619 133.886 119.862 132.656 117.877 130.672C116.853 129.655 116.042 128.446 115.489 127.114C114.936 125.783 114.652 124.356 114.654 122.914C114.654 119.886 115.888 117.137 117.877 115.157C118.897 114.136 120.109 113.327 121.444 112.776C122.779 112.224 124.21 111.941 125.655 111.943ZM129.698 118.882C129.168 118.352 128.537 117.932 127.844 117.646C127.15 117.359 126.406 117.212 125.655 117.213C124.079 117.213 122.647 117.854 121.612 118.882C120.581 119.911 119.939 121.342 119.939 122.914C119.939 124.487 120.581 125.918 121.612 126.947C122.647 127.975 124.079 128.616 125.655 128.616C127.236 128.616 128.667 127.975 129.698 126.947C130.729 125.918 131.372 124.487 131.372 122.914C131.372 121.342 130.729 119.911 129.698 118.882ZM115.156 82.9887C117.642 82.9887 119.66 85.0007 119.66 87.4805C119.66 89.9602 117.642 91.9722 115.156 91.9722C112.669 91.9722 110.652 89.9602 110.652 87.4805C110.652 85.0007 112.669 82.9887 115.156 82.9887ZM94.763 103.218C97.6214 103.218 99.938 105.528 99.938 108.379C99.938 111.225 97.6214 113.54 94.763 113.54C91.9046 113.54 89.588 111.225 89.588 108.379C89.588 105.528 91.9046 103.218 94.763 103.218ZM69.543 72.5577C72.4013 72.5577 74.7179 74.8721 74.7179 77.7188C74.7179 80.5695 72.4013 82.8798 69.543 82.8798C66.6846 82.8798 64.368 80.5695 64.368 77.7188C64.368 74.8721 66.6846 72.5577 69.543 72.5577ZM98.0338 52.5424C101.07 52.5424 103.823 53.7762 105.812 55.7559C107.798 57.7397 109.035 60.4856 109.035 63.5137C109.035 66.5458 107.798 69.2917 105.812 71.2755C103.823 73.2552 101.07 74.4891 98.0338 74.4891C94.9934 74.4891 92.2402 73.2552 90.251 71.2755C88.2659 69.2917 87.0288 66.5458 87.0288 63.5137C87.0288 60.4856 88.2659 57.7397 90.251 55.7559C92.2402 53.7762 94.9934 52.5424 98.0338 52.5424ZM102.073 59.4816C101.543 58.9521 100.913 58.532 100.22 58.2456C99.5269 57.9591 98.784 57.8119 98.0338 57.8123C96.4529 57.8123 95.0217 58.4534 93.9908 59.4816C92.9558 60.5138 92.313 61.9412 92.313 63.5137C92.313 65.0902 92.9558 66.5176 93.9908 67.5458C95.0217 68.578 96.4529 69.2191 98.0338 69.2191C99.6105 69.2191 101.042 68.578 102.073 67.5458C103.108 66.5176 103.751 65.0902 103.751 63.5137C103.751 61.9412 103.108 60.5138 102.073 59.4816Z" fill="#F5E9E9"/>
</g>
<defs>
<clipPath id="clip0_167_167">
<rect width="207" height="197" fill="white"/>
</clipPath>
</defs>
</svg>
