<svg width="115" height="173" viewBox="0 0 115 173" fill="none" xmlns="http://www.w3.org/2000/svg">
<path fill-rule="evenodd" clip-rule="evenodd" d="M57.4706 0.829102C69.9454 53.6763 114.244 77.3966 114.244 117.122C114.244 132.405 108.678 145.506 97.5376 156.427C86.3548 167.349 73.0258 172.835 57.498 172.835C42.0108 172.835 28.7093 167.349 17.5264 156.427C6.37136 145.507 0.792969 132.406 0.792969 117.122C0.792969 77.2076 45.1305 53.8888 57.4706 0.829102Z" fill="#F5E9E9"/>
<path d="M18.6489 108.89C18.2022 106.098 20.1238 103.473 22.9417 103.03C25.7597 102.587 28.4077 104.492 28.8544 107.285C30.3279 116.387 33.4449 124.228 37.7066 130.414C41.9561 136.584 47.336 141.068 53.315 143.446C55.9657 144.498 57.2526 147.483 56.1906 150.11C55.1285 152.738 52.1172 154.014 49.4665 152.961C41.572 149.822 34.5726 144.052 29.1602 136.194C24.0783 128.817 20.3747 119.556 18.6489 108.89Z" fill="#A60C0C"/>
</svg>
