<svg width="468" height="451" viewBox="0 0 468 451" fill="none" xmlns="http://www.w3.org/2000/svg">
<path d="M236.634 323.085C187.248 305.996 132.117 286.328 109.567 278.229C101.336 275.381 97.1383 266.224 99.886 257.692L102.008 251.103C103.413 246.741 103.123 241.993 102.691 237.395C102.175 231.895 102.623 223.688 105.994 212.097C112.778 189.257 131.662 146.601 132.606 144.557C135.439 137.536 145.563 125.631 163.225 132.927C169.741 135.774 173.598 139.776 174.539 144.843C176.23 153.085 175.543 163.041 182.053 168.342L197.266 180.733C203.235 185.594 211.359 186.631 218.197 183.403L255.567 165.768C261.913 162.926 269.116 163.641 274.431 168.443L399.895 274.812C401.282 275.988 402.808 276.955 404.408 277.804C413.758 282.763 441.458 299.903 437.296 323.176C433.256 344.596 426.302 364.414 401.091 363.691C398.261 363.601 395.689 363.6 392.859 363.51C376.652 363.236 359.844 363.05 315.601 349.52C298.71 344.268 269.044 334.299 236.634 323.085ZM158.334 140.125C147.998 136.548 142.754 142.962 140.736 146.265C140.072 147.353 139.567 148.505 139.057 149.677C135.4 158.061 119.433 194.635 113.796 214.501C110.178 226.837 110.282 234.431 110.946 238.444C111.349 240.88 113.076 243.369 112.325 245.698L107.517 260.629C106.229 264.628 108.199 269.162 112.315 270.586C149.783 283.847 275.135 328.702 318.091 341.788C361.305 354.962 376.655 355.236 393.205 355.333C396.035 355.423 398.608 355.424 401.437 355.514C417.559 356.055 424.68 347.258 429.407 321.928C432.673 304.686 407.983 289.031 398.381 284.227C397.663 283.979 397.136 283.348 396.552 282.853L269.455 175.018C266.54 172.528 262.681 172.082 259.079 173.502L207.96 197.3C206.588 198.01 204.959 197.743 203.844 196.765L161.668 162.614C160.725 161.991 160.297 160.658 160.126 159.413C159.955 158.169 160.642 156.925 161.5 156.036C162.787 154.704 166.905 149.906 166.392 146.172C165.972 143.843 163.768 142.288 161.477 141.117C160.5 140.617 159.367 140.482 158.334 140.125Z" fill="url(#paint0_linear_167_47)"/>
<path d="M308.752 322.851C258.08 305.318 202.093 281.204 197.549 279.336L107.265 248.096C105.207 247.384 104.008 244.895 104.694 242.762C105.381 240.629 107.783 239.385 109.841 240.098L200.125 271.337L200.383 271.426C201.669 271.871 332.761 328.195 377.093 332.571C403.38 335.307 416.387 335.9 422.635 335.989C426.177 336.04 431.013 335.155 432.397 338.481C432.512 338.757 432.6 339.049 432.658 339.351C433.086 341.573 431.542 343.706 429.398 344.149C428.197 344.327 420.393 345.479 376.404 340.925C360.883 339.407 335.503 332.107 308.752 322.851Z" fill="url(#paint1_linear_167_47)"/>
<path d="M182.373 274.085C179.503 273.091 179.31 269.103 178.86 266.073C177.761 258.664 175.088 242.919 170.304 222.793C165.427 202.399 140.016 186.842 128.499 180.599C124.834 178.612 119.315 176.061 120.589 172.106C121.317 170.529 122.862 169.587 124.475 169.566C125.442 169.554 126.328 169.999 127.206 170.425C134.741 174.08 171.461 192.68 178.194 220.485C184.957 249.198 187.521 268.754 187.606 269.376C187.921 271.01 187.03 272.547 185.685 273.423C184.718 274.052 183.475 274.466 182.373 274.085Z" fill="url(#paint2_linear_167_47)"/>
<path d="M295.463 317.956C294.434 317.6 293.577 316.711 293.063 315.644C292.034 313.511 293.15 310.933 295.123 310.134C302.499 306.76 340.409 290.245 349.584 291.049C351.814 291.228 355.587 291.941 360.731 292.832C375.909 295.416 404.376 300.229 422.557 298.815C424.872 298.727 426.672 300.239 427.014 302.728C427.099 305.128 425.64 306.994 423.239 307.348C404.115 309.029 376.162 304.394 359.356 301.542C354.468 300.74 350.695 300.027 348.723 299.937C344.193 299.508 321.383 308.338 300.739 317.219C299.066 317.938 297.202 318.558 295.463 317.956Z" fill="url(#paint3_linear_167_47)"/>
<path d="M326.34 303.749C268.465 283.724 173.561 225.994 172.361 225.282C170.475 224.037 169.876 221.459 170.82 219.415C171.764 217.371 174.508 216.839 176.48 217.818C177.423 218.441 274.213 277.415 331.059 296.196C333.117 296.908 334.317 299.397 333.63 301.53C333.18 302.927 331.995 303.942 330.653 304.276C329.255 304.625 327.715 304.225 326.34 303.749Z" fill="url(#paint4_linear_167_47)"/>
<path d="M208.025 245.919C206.739 245.474 205.882 244.585 205.454 243.252C204.769 240.94 206.056 238.719 208.286 238.009L262.832 221.323C265.493 220.405 267.938 223.35 270.313 224.945C276.946 229.401 294.012 239.383 330.563 252.464C351.937 260.234 363.014 261.951 368.681 262.007C371.971 262.039 374.142 258.264 377.297 257.374C378.957 257.031 380.617 257.753 381.599 259.17C382.192 260.025 382.384 261.097 382.33 262.131C382.242 263.823 381.646 265.841 380.037 267.508C376.262 271.239 366.656 274.435 328.245 260.551C299.316 250.136 282.075 241.683 272.479 236.073C266.767 232.734 259.945 231.307 253.686 233.14L212.14 245.305C210.943 245.655 209.742 246.288 208.509 246.049C208.346 246.018 208.184 245.974 208.025 245.919Z" fill="url(#paint5_linear_167_47)"/>
<path d="M239.832 263.445C238.546 263 237.689 262.111 237.261 260.777C236.576 258.466 237.606 256.155 239.836 255.445L291.895 237.603C294.125 236.893 296.354 237.961 297.039 240.272C297.724 242.583 296.694 244.894 294.464 245.604L242.405 263.446C241.461 263.712 240.604 263.712 239.832 263.445Z" fill="url(#paint6_linear_167_47)"/>
<path d="M268.725 278.48C267.438 278.035 266.581 277.145 266.153 275.812C265.468 273.501 266.755 271.279 268.985 270.569L327.82 252.108C330.049 251.398 332.193 252.732 332.878 255.043C333.563 257.355 332.276 259.576 330.046 260.286L272.711 277.879C271.599 278.22 270.49 278.811 269.333 278.631C269.128 278.6 268.923 278.548 268.725 278.48Z" fill="url(#paint7_linear_167_47)"/>
<path d="M265.844 196.882C265.072 196.615 264.129 195.993 263.615 194.926C262.501 193.059 263.102 190.304 264.904 189.149L282.145 178.224C283.946 177.069 286.604 177.693 287.718 179.56C288.832 181.427 288.231 184.182 286.429 185.337L269.188 196.262C268.073 197.061 266.873 197.238 265.844 196.882Z" fill="url(#paint8_linear_167_47)"/>
<path d="M282.473 211.823C281.702 211.556 280.759 210.933 280.416 210.222C279.302 208.355 279.903 205.6 281.705 204.445L298.86 192.898C300.662 191.743 303.32 192.366 304.434 194.234C305.548 196.101 304.946 198.856 303.145 200.01L285.989 211.558C284.96 212.09 283.759 212.268 282.473 211.823Z" fill="url(#paint9_linear_167_47)"/>
<path d="M301.676 226.763C300.904 226.496 300.218 225.963 299.618 225.163C298.247 223.207 298.763 220.718 300.65 219.297L316.433 207.571C318.321 206.15 320.721 206.684 322.093 208.64C323.464 210.596 322.948 213.085 321.061 214.506L305.278 226.232C304.162 227.031 302.705 227.119 301.676 226.763Z" fill="url(#paint10_linear_167_47)"/>
<path d="M316.248 240.992C315.476 240.725 314.533 240.102 314.019 239.035C312.905 237.168 313.506 234.413 315.308 233.258L333.235 221.978C335.036 220.824 337.694 221.447 338.808 223.314C339.922 225.181 339.321 227.936 337.519 229.091L319.592 240.371C318.477 241.171 317.276 241.348 316.248 240.992Z" fill="url(#paint11_linear_167_47)"/>
<path d="M85.8078 195.108H27.373M75.0435 249.302H4.30658M133.478 316.246H19.6842" stroke="url(#paint12_linear_167_47)" stroke-opacity="0.73" stroke-width="7" stroke-linecap="round" stroke-linejoin="round"/>
<path d="M416.714 432.156L76.686 18.7739" stroke="#FCE9E9" stroke-width="36" stroke-linecap="round" stroke-linejoin="round"/>
<path d="M400.108 414.421L117.2 67.1963" stroke="url(#paint13_linear_167_47)" stroke-width="10" stroke-linecap="round" stroke-linejoin="round"/>
<defs>
<linearGradient id="paint0_linear_167_47" x1="65.607" y1="222.144" x2="451.317" y2="222.144" gradientUnits="userSpaceOnUse">
<stop stop-color="#E10909"/>
<stop offset="1" stop-color="#8F0505"/>
</linearGradient>
<linearGradient id="paint1_linear_167_47" x1="71.4016" y1="233.643" x2="207.642" y2="106.467" gradientUnits="userSpaceOnUse">
<stop stop-color="#E10909"/>
<stop offset="1" stop-color="#8F0505"/>
</linearGradient>
<linearGradient id="paint2_linear_167_47" x1="94.3398" y1="222.7" x2="200.746" y2="237.724" gradientUnits="userSpaceOnUse">
<stop stop-color="#E10909"/>
<stop offset="1" stop-color="#8F0505"/>
</linearGradient>
<linearGradient id="paint3_linear_167_47" x1="284.236" y1="298.406" x2="422.377" y2="300.41" gradientUnits="userSpaceOnUse">
<stop stop-color="#E10909"/>
<stop offset="1" stop-color="#8F0505"/>
</linearGradient>
<linearGradient id="paint4_linear_167_47" x1="147.224" y1="233.35" x2="296.331" y2="175.435" gradientUnits="userSpaceOnUse">
<stop stop-color="#E10909"/>
<stop offset="1" stop-color="#8F0505"/>
</linearGradient>
<linearGradient id="paint5_linear_167_47" x1="190.953" y1="228.231" x2="362.489" y2="192.632" gradientUnits="userSpaceOnUse">
<stop stop-color="#E10909"/>
<stop offset="1" stop-color="#8F0505"/>
</linearGradient>
<linearGradient id="paint6_linear_167_47" x1="234.163" y1="250.427" x2="293.323" y2="258.249" gradientUnits="userSpaceOnUse">
<stop stop-color="#E10909"/>
<stop offset="1" stop-color="#8F0505"/>
</linearGradient>
<linearGradient id="paint7_linear_167_47" x1="262.745" y1="264.649" x2="329.026" y2="272.775" gradientUnits="userSpaceOnUse">
<stop stop-color="#E10909"/>
<stop offset="1" stop-color="#8F0505"/>
</linearGradient>
<linearGradient id="paint8_linear_167_47" x1="261.776" y1="189.095" x2="285.617" y2="193.558" gradientUnits="userSpaceOnUse">
<stop stop-color="#E10909"/>
<stop offset="1" stop-color="#8F0505"/>
</linearGradient>
<linearGradient id="paint9_linear_167_47" x1="278.71" y1="204.068" x2="302.24" y2="208.546" gradientUnits="userSpaceOnUse">
<stop stop-color="#E10909"/>
<stop offset="1" stop-color="#8F0505"/>
</linearGradient>
<linearGradient id="paint10_linear_167_47" x1="297.781" y1="218.969" x2="320.024" y2="223.352" gradientUnits="userSpaceOnUse">
<stop stop-color="#E10909"/>
<stop offset="1" stop-color="#8F0505"/>
</linearGradient>
<linearGradient id="paint11_linear_167_47" x1="312.171" y1="233.055" x2="336.628" y2="237.624" gradientUnits="userSpaceOnUse">
<stop stop-color="#E10909"/>
<stop offset="1" stop-color="#8F0505"/>
</linearGradient>
<linearGradient id="paint12_linear_167_47" x1="-10.7209" y1="281.217" x2="102.244" y2="281.217" gradientUnits="userSpaceOnUse">
<stop stop-color="#E10909"/>
<stop offset="1" stop-color="#8F0505"/>
</linearGradient>
<linearGradient id="paint13_linear_167_47" x1="124.303" y1="78.2388" x2="411.652" y2="404.246" gradientUnits="userSpaceOnUse">
<stop stop-color="#E10909"/>
<stop offset="1" stop-color="#8F0505"/>
</linearGradient>
</defs>
</svg>
