<svg width="468" height="398" viewBox="0 0 468 398" fill="none" xmlns="http://www.w3.org/2000/svg">
<path d="M236.634 280.085C187.248 262.996 132.117 243.328 109.567 235.229C101.336 232.381 97.1383 223.224 99.886 214.692L102.008 208.103C103.413 203.741 103.123 198.993 102.691 194.395C102.175 188.895 102.623 180.688 105.994 169.097C112.778 146.257 131.662 103.601 132.606 101.557C135.439 94.5364 145.563 82.6305 163.225 89.9271C169.741 92.7744 173.598 96.776 174.539 101.843C176.23 110.085 175.543 120.041 182.053 125.342L197.266 137.733C203.235 142.594 211.359 143.631 218.197 140.403L255.567 122.768C261.913 119.926 269.116 120.641 274.431 125.443L399.895 231.812C401.282 232.988 402.808 233.955 404.408 234.804C413.758 239.763 441.458 256.903 437.296 280.176C433.256 301.596 426.302 321.414 401.091 320.691C398.261 320.601 395.689 320.6 392.859 320.51C376.652 320.236 359.844 320.05 315.601 306.52C298.71 301.268 269.044 291.299 236.634 280.085ZM158.334 97.1245C147.998 93.5484 142.754 99.9622 140.736 103.265C140.072 104.353 139.567 105.505 139.057 106.677C135.4 115.061 119.433 151.635 113.796 171.501C110.178 183.837 110.282 191.431 110.946 195.444C111.349 197.88 113.076 200.369 112.325 202.698L107.517 217.629C106.229 221.628 108.199 226.162 112.315 227.586C149.783 240.847 275.135 285.702 318.091 298.788C361.305 311.962 376.655 312.236 393.205 312.333C396.035 312.423 398.608 312.424 401.437 312.514C417.559 313.055 424.68 304.258 429.407 278.928C432.673 261.686 407.983 246.031 398.381 241.227C397.663 240.979 397.136 240.348 396.552 239.853L269.455 132.018C266.54 129.528 262.681 129.082 259.079 130.502L207.96 154.3C206.588 155.01 204.959 154.743 203.844 153.765L161.668 119.614C160.725 118.991 160.297 117.658 160.126 116.413C159.955 115.169 160.642 113.925 161.5 113.036C162.787 111.704 166.905 106.906 166.392 103.172C165.972 100.843 163.768 99.2876 161.477 98.1166C160.5 97.6173 159.367 97.4822 158.334 97.1245Z" fill="url(#paint0_linear_167_47)"/>
<path d="M308.752 279.851C258.08 262.318 202.093 238.204 197.549 236.336L107.265 205.096C105.207 204.384 104.008 201.895 104.694 199.762C105.381 197.629 107.783 196.385 109.841 197.098L200.125 228.337L200.383 228.426C201.669 228.871 332.761 285.195 377.093 289.571C403.38 292.307 416.387 292.9 422.635 292.989C426.177 293.04 431.013 292.155 432.397 295.481C432.512 295.757 432.6 296.049 432.658 296.351C433.086 298.573 431.542 300.706 429.398 301.149C428.197 301.327 420.393 302.479 376.404 297.925C360.883 296.407 335.503 289.107 308.752 279.851Z" fill="url(#paint1_linear_167_47)"/>
<path d="M182.373 231.085C179.503 230.091 179.31 226.103 178.86 223.073C177.761 215.664 175.088 199.919 170.304 179.793C165.427 159.399 140.016 143.842 128.499 137.599C124.834 135.612 119.315 133.061 120.589 129.106C121.317 127.529 122.862 126.587 124.475 126.566C125.442 126.554 126.328 126.999 127.206 127.425C134.741 131.08 171.461 149.68 178.194 177.485C184.957 206.198 187.521 225.754 187.606 226.376C187.921 228.01 187.03 229.547 185.685 230.423C184.718 231.052 183.475 231.466 182.373 231.085Z" fill="url(#paint2_linear_167_47)"/>
<path d="M295.463 274.956C294.434 274.6 293.577 273.711 293.063 272.644C292.034 270.511 293.15 267.933 295.123 267.134C302.499 263.76 340.409 247.245 349.584 248.049C351.814 248.228 355.587 248.941 360.731 249.832C375.909 252.416 404.376 257.229 422.557 255.815C424.872 255.727 426.672 257.239 427.014 259.728C427.099 262.128 425.64 263.994 423.239 264.348C404.115 266.029 376.162 261.394 359.356 258.542C354.468 257.74 350.695 257.027 348.723 256.937C344.193 256.508 321.383 265.338 300.739 274.219C299.066 274.938 297.202 275.558 295.463 274.956Z" fill="url(#paint3_linear_167_47)"/>
<path d="M326.34 260.749C268.465 240.724 173.561 182.994 172.361 182.282C170.475 181.037 169.876 178.459 170.82 176.415C171.764 174.371 174.508 173.839 176.48 174.818C177.423 175.441 274.213 234.415 331.059 253.196C333.117 253.908 334.317 256.397 333.63 258.53C333.18 259.927 331.995 260.942 330.653 261.276C329.255 261.625 327.715 261.225 326.34 260.749Z" fill="url(#paint4_linear_167_47)"/>
<path d="M208.025 202.919C206.739 202.474 205.882 201.585 205.454 200.252C204.769 197.94 206.056 195.719 208.286 195.009L262.832 178.323C265.493 177.405 267.938 180.35 270.313 181.945C276.946 186.401 294.012 196.383 330.563 209.464C351.937 217.234 363.014 218.951 368.681 219.007C371.971 219.039 374.142 215.264 377.297 214.374C378.957 214.031 380.617 214.753 381.599 216.17C382.192 217.025 382.384 218.097 382.33 219.131C382.242 220.823 381.646 222.841 380.037 224.508C376.262 228.239 366.656 231.435 328.245 217.551C299.316 207.136 282.075 198.683 272.479 193.073C266.767 189.734 259.945 188.307 253.686 190.14L212.14 202.305C210.943 202.655 209.742 203.288 208.509 203.049C208.346 203.018 208.184 202.974 208.025 202.919Z" fill="url(#paint5_linear_167_47)"/>
<path d="M239.832 220.445C238.546 220 237.689 219.111 237.261 217.777C236.576 215.466 237.606 213.155 239.836 212.445L291.895 194.603C294.125 193.893 296.354 194.961 297.039 197.272C297.724 199.583 296.694 201.894 294.464 202.604L242.405 220.446C241.461 220.712 240.604 220.712 239.832 220.445Z" fill="url(#paint6_linear_167_47)"/>
<path d="M268.725 235.48C267.438 235.035 266.581 234.145 266.153 232.812C265.468 230.501 266.755 228.279 268.985 227.569L327.82 209.108C330.049 208.398 332.193 209.732 332.878 212.043C333.563 214.355 332.276 216.576 330.046 217.286L272.711 234.879C271.599 235.22 270.49 235.811 269.333 235.631C269.128 235.6 268.923 235.548 268.725 235.48Z" fill="url(#paint7_linear_167_47)"/>
<path d="M265.844 153.882C265.072 153.615 264.129 152.993 263.615 151.926C262.501 150.059 263.102 147.304 264.904 146.149L282.145 135.224C283.946 134.069 286.604 134.693 287.718 136.56C288.832 138.427 288.231 141.182 286.429 142.337L269.188 153.262C268.073 154.061 266.873 154.238 265.844 153.882Z" fill="url(#paint8_linear_167_47)"/>
<path d="M282.473 168.823C281.702 168.556 280.759 167.933 280.416 167.222C279.302 165.355 279.903 162.6 281.705 161.445L298.86 149.898C300.662 148.743 303.32 149.366 304.434 151.234C305.548 153.101 304.946 155.856 303.145 157.01L285.989 168.558C284.96 169.09 283.759 169.268 282.473 168.823Z" fill="url(#paint9_linear_167_47)"/>
<path d="M301.676 183.763C300.904 183.496 300.218 182.963 299.618 182.163C298.247 180.207 298.763 177.718 300.65 176.297L316.433 164.571C318.321 163.15 320.721 163.684 322.093 165.64C323.464 167.596 322.948 170.085 321.061 171.506L305.278 183.232C304.162 184.031 302.705 184.119 301.676 183.763Z" fill="url(#paint10_linear_167_47)"/>
<path d="M316.248 197.992C315.476 197.725 314.533 197.102 314.019 196.035C312.905 194.168 313.506 191.413 315.308 190.258L333.235 178.978C335.036 177.824 337.694 178.447 338.808 180.314C339.922 182.181 339.321 184.936 337.519 186.091L319.592 197.371C318.477 198.171 317.276 198.348 316.248 197.992Z" fill="url(#paint11_linear_167_47)"/>
<path d="M85.8078 152.108H27.373M75.0435 206.302H4.30658M133.478 273.246H19.6842" stroke="url(#paint12_linear_167_47)" stroke-opacity="0.73" stroke-width="7" stroke-linecap="round" stroke-linejoin="round"/>
<path d="M407.096 379.296L112.185 18.3379" stroke="#FCE9E9" stroke-width="36" stroke-linecap="round" stroke-linejoin="round"/>
<path d="M400.108 371.421L117.2 24.1963" stroke="url(#paint13_linear_167_47)" stroke-width="10" stroke-linecap="round" stroke-linejoin="round"/>
<defs>
<linearGradient id="paint0_linear_167_47" x1="65.607" y1="179.144" x2="451.317" y2="179.144" gradientUnits="userSpaceOnUse">
<stop stop-color="#E10909"/>
<stop offset="1" stop-color="#8F0505"/>
</linearGradient>
<linearGradient id="paint1_linear_167_47" x1="71.4016" y1="190.643" x2="207.642" y2="63.4669" gradientUnits="userSpaceOnUse">
<stop stop-color="#E10909"/>
<stop offset="1" stop-color="#8F0505"/>
</linearGradient>
<linearGradient id="paint2_linear_167_47" x1="94.3398" y1="179.7" x2="200.746" y2="194.724" gradientUnits="userSpaceOnUse">
<stop stop-color="#E10909"/>
<stop offset="1" stop-color="#8F0505"/>
</linearGradient>
<linearGradient id="paint3_linear_167_47" x1="284.236" y1="255.406" x2="422.377" y2="257.41" gradientUnits="userSpaceOnUse">
<stop stop-color="#E10909"/>
<stop offset="1" stop-color="#8F0505"/>
</linearGradient>
<linearGradient id="paint4_linear_167_47" x1="147.224" y1="190.35" x2="296.331" y2="132.435" gradientUnits="userSpaceOnUse">
<stop stop-color="#E10909"/>
<stop offset="1" stop-color="#8F0505"/>
</linearGradient>
<linearGradient id="paint5_linear_167_47" x1="190.953" y1="185.231" x2="362.489" y2="149.632" gradientUnits="userSpaceOnUse">
<stop stop-color="#E10909"/>
<stop offset="1" stop-color="#8F0505"/>
</linearGradient>
<linearGradient id="paint6_linear_167_47" x1="234.163" y1="207.427" x2="293.323" y2="215.249" gradientUnits="userSpaceOnUse">
<stop stop-color="#E10909"/>
<stop offset="1" stop-color="#8F0505"/>
</linearGradient>
<linearGradient id="paint7_linear_167_47" x1="262.745" y1="221.649" x2="329.026" y2="229.775" gradientUnits="userSpaceOnUse">
<stop stop-color="#E10909"/>
<stop offset="1" stop-color="#8F0505"/>
</linearGradient>
<linearGradient id="paint8_linear_167_47" x1="261.776" y1="146.095" x2="285.617" y2="150.558" gradientUnits="userSpaceOnUse">
<stop stop-color="#E10909"/>
<stop offset="1" stop-color="#8F0505"/>
</linearGradient>
<linearGradient id="paint9_linear_167_47" x1="278.71" y1="161.068" x2="302.24" y2="165.546" gradientUnits="userSpaceOnUse">
<stop stop-color="#E10909"/>
<stop offset="1" stop-color="#8F0505"/>
</linearGradient>
<linearGradient id="paint10_linear_167_47" x1="297.781" y1="175.969" x2="320.024" y2="180.352" gradientUnits="userSpaceOnUse">
<stop stop-color="#E10909"/>
<stop offset="1" stop-color="#8F0505"/>
</linearGradient>
<linearGradient id="paint11_linear_167_47" x1="312.171" y1="190.055" x2="336.628" y2="194.624" gradientUnits="userSpaceOnUse">
<stop stop-color="#E10909"/>
<stop offset="1" stop-color="#8F0505"/>
</linearGradient>
<linearGradient id="paint12_linear_167_47" x1="-10.7209" y1="238.217" x2="102.244" y2="238.217" gradientUnits="userSpaceOnUse">
<stop stop-color="#E10909"/>
<stop offset="1" stop-color="#8F0505"/>
</linearGradient>
<linearGradient id="paint13_linear_167_47" x1="124.303" y1="35.2388" x2="411.652" y2="361.246" gradientUnits="userSpaceOnUse">
<stop stop-color="#E10909"/>
<stop offset="1" stop-color="#8F0505"/>
</linearGradient>
</defs>
</svg>
