<svg width="478" height="461" viewBox="0 0 478 461" fill="none" xmlns="http://www.w3.org/2000/svg">
<path d="M247.419 300.79C198.237 283.702 143.334 264.033 120.878 255.934C112.681 253.086 108.5 243.929 111.237 235.397L113.355 228.793C114.751 224.441 114.461 219.7 114.031 215.11C113.516 209.61 113.96 201.399 117.319 189.802C124.075 166.962 142.881 124.306 143.821 122.262C146.642 115.242 156.724 103.336 174.313 110.632C180.802 113.479 184.643 117.481 185.581 122.548V122.548C187.267 130.8 186.591 140.754 193.095 146.074L208.151 158.387C214.131 163.277 222.273 164.324 229.116 161.081L266.273 143.473C272.593 140.631 279.766 141.346 285.059 146.148L409.99 252.506C411.381 253.69 412.909 254.662 414.514 255.517C423.84 260.487 451.393 277.621 447.25 300.881C443.227 322.301 436.301 342.119 411.195 341.396C408.377 341.306 405.815 341.305 402.997 341.215C386.856 340.941 370.119 340.755 326.059 327.225C309.238 321.973 279.694 312.004 247.419 300.79ZM169.442 117.83C159.145 114.252 153.922 120.673 151.915 123.975C151.255 125.059 150.755 126.209 150.247 127.377C146.61 135.751 130.704 172.336 125.089 192.206C121.486 204.54 121.589 212.134 122.25 216.147C122.652 218.583 124.371 221.076 123.624 223.404V223.404L118.836 238.334C117.553 242.333 119.515 246.867 123.614 248.291C160.927 261.552 285.76 306.407 328.539 319.493C371.574 332.668 386.86 332.941 403.342 333.038C406.16 333.128 408.722 333.129 411.54 333.219C427.594 333.76 434.686 324.963 439.394 299.634C442.646 282.391 418.058 266.736 408.496 261.932V261.932C407.78 261.684 407.256 261.053 406.675 260.558L280.103 152.723C277.201 150.233 273.358 149.787 269.771 151.207L218.864 175.005C217.497 175.716 215.874 175.448 214.765 174.47L172.763 140.319C171.824 139.696 171.398 138.363 171.228 137.118C171.057 135.874 171.741 134.63 172.595 133.741C173.877 132.409 177.978 127.611 177.467 123.877C177.049 121.548 174.854 119.993 172.573 118.822C171.6 118.322 170.472 118.187 169.442 117.83V117.83Z" fill="url(#paint0_linear_295_164)"/>
<path d="M319.238 300.556C268.776 283.023 213.021 258.909 208.496 257.041L118.585 225.801C116.536 225.089 115.341 222.6 116.025 220.467C116.709 218.334 119.101 217.091 121.15 217.803L211.061 249.042L211.317 249.131C212.598 249.576 343.148 305.9 387.296 310.276C413.428 313.008 426.381 313.603 432.617 313.694C436.166 313.746 441.024 312.865 442.384 316.217C442.492 316.484 442.576 316.765 442.631 317.056C443.058 319.279 441.519 321.411 439.384 321.855C438.189 322.032 430.417 323.184 386.61 318.63C371.153 317.112 345.879 309.812 319.238 300.556Z" fill="url(#paint1_linear_295_164)"/>
<path d="M193.383 251.79V251.79C190.521 250.795 190.332 246.811 189.885 243.785C188.791 236.38 186.129 220.631 181.363 200.498C176.508 180.11 151.215 164.556 139.742 158.31C136.085 156.319 130.587 153.76 131.854 149.811V149.811C132.578 148.237 134.111 147.296 135.714 147.271C136.683 147.256 137.573 147.706 138.453 148.135C145.979 151.802 182.518 170.397 189.221 198.19C195.955 226.903 198.509 246.459 198.594 247.081C198.907 248.715 198.02 250.253 196.679 251.129C195.717 251.757 194.48 252.171 193.383 251.79V251.79Z" fill="url(#paint2_linear_295_164)"/>
<path d="M306.004 295.661C304.979 295.305 304.126 294.416 303.614 293.349C302.59 291.216 303.701 288.638 305.666 287.839C313.011 284.465 350.764 267.95 359.901 268.754C362.122 268.933 365.879 269.646 371.002 270.537C386.117 273.121 414.467 277.934 432.572 276.52C434.877 276.433 436.67 277.944 437.011 280.433C437.095 282.833 435.642 284.699 433.251 285.054C414.207 286.734 386.369 282.099 369.632 279.247C364.765 278.445 361.008 277.732 359.044 277.642C354.532 277.213 331.814 286.044 311.255 294.925C309.591 295.644 307.736 296.263 306.004 295.661V295.661Z" fill="url(#paint3_linear_295_164)"/>
<path d="M336.753 281.454C279.118 261.429 184.607 203.699 183.412 202.988C181.533 201.742 180.937 199.164 181.877 197.12C182.817 195.077 185.55 194.544 187.514 195.523C188.453 196.146 284.842 255.12 341.453 273.901C343.502 274.613 344.697 277.102 344.013 279.235C343.565 280.632 342.385 281.647 341.048 281.982C339.657 282.33 338.123 281.93 336.753 281.454V281.454Z" fill="url(#paint4_linear_295_164)"/>
<path d="M218.928 223.625C217.648 223.18 216.794 222.29 216.368 220.957C215.685 218.646 216.967 216.424 219.188 215.714L273.508 199.029V199.029C276.156 198.111 278.593 201.055 280.958 202.65C287.565 207.106 304.56 217.089 340.959 230.169C362.231 237.935 373.262 239.654 378.909 239.712C382.194 239.746 384.351 235.971 387.499 235.079V235.079C389.152 234.736 390.805 235.458 391.783 236.874C392.375 237.73 392.565 238.801 392.512 239.835C392.424 241.527 391.831 243.546 390.227 245.213C386.468 248.945 376.902 252.14 338.65 238.256C309.901 227.863 292.743 219.423 283.175 213.813C277.449 210.455 270.609 209.02 264.342 210.862L223.031 223.008C221.836 223.36 220.636 223.995 219.404 223.753C219.243 223.722 219.084 223.679 218.928 223.625Z" fill="url(#paint5_linear_295_164)"/>
<path d="M250.604 241.15C249.323 240.705 248.469 239.816 248.043 238.482C247.361 236.171 248.386 233.86 250.607 233.15L302.451 215.308C304.672 214.598 306.892 215.666 307.574 217.977C308.256 220.289 307.23 222.599 305.01 223.309L253.166 241.151C252.226 241.417 251.372 241.417 250.604 241.15Z" fill="url(#paint6_linear_295_164)"/>
<path d="M279.376 256.185C278.096 255.74 277.242 254.851 276.816 253.517C276.133 251.206 277.415 248.984 279.636 248.274L338.227 229.813C340.447 229.103 342.582 230.437 343.264 232.748C343.946 235.06 342.664 237.281 340.444 237.991L283.352 255.582C282.241 255.925 281.133 256.518 279.977 256.336C279.774 256.304 279.572 256.253 279.376 256.185Z" fill="url(#paint7_linear_295_164)"/>
<path d="M276.507 174.587C275.739 174.32 274.8 173.698 274.288 172.631C273.179 170.764 273.777 168.009 275.571 166.854L292.741 155.929C294.535 154.774 297.182 155.398 298.291 157.265C299.401 159.132 298.802 161.887 297.008 163.042L279.838 173.967C278.728 174.766 277.532 174.943 276.507 174.587Z" fill="url(#paint8_linear_295_164)"/>
<path d="M293.068 189.527C292.3 189.26 291.361 188.637 291.019 187.926C289.91 186.059 290.509 183.304 292.303 182.149L309.387 170.602C311.181 169.447 313.828 170.071 314.937 171.938C316.047 173.805 315.448 176.56 313.654 177.715L296.57 189.262C295.545 189.795 294.349 189.972 293.068 189.527Z" fill="url(#paint9_linear_295_164)"/>
<path d="M312.191 204.469C311.423 204.202 310.74 203.668 310.142 202.868C308.777 200.912 309.29 198.423 311.169 197.002L326.888 185.276C328.767 183.855 331.158 184.389 332.523 186.345C333.889 188.301 333.376 190.79 331.496 192.211L315.778 203.937C314.668 204.736 313.216 204.825 312.191 204.469Z" fill="url(#paint10_linear_295_164)"/>
<path d="M326.703 218.697C325.934 218.43 324.995 217.807 324.483 216.74C323.374 214.873 323.973 212.118 325.767 210.963L343.619 199.683C345.413 198.529 348.06 199.152 349.17 201.019C350.279 202.886 349.68 205.641 347.886 206.796L330.033 218.076C328.923 218.876 327.727 219.053 326.703 218.697Z" fill="url(#paint11_linear_295_164)"/>
<path d="M97.2166 172.813H39.0237M86.4969 227.007H16.0528M144.69 293.951H31.3667" stroke="url(#paint12_linear_295_164)" stroke-width="7" stroke-linecap="round" stroke-linejoin="round"/>
<defs>
<linearGradient id="paint0_linear_295_164" x1="77.0995" y1="199.849" x2="461.213" y2="199.849" gradientUnits="userSpaceOnUse">
<stop stop-color="#E10909"/>
<stop offset="1" stop-color="#8F0505"/>
</linearGradient>
<linearGradient id="paint1_linear_295_164" x1="82.8702" y1="211.348" x2="219.071" y2="84.7356" gradientUnits="userSpaceOnUse">
<stop stop-color="#E10909"/>
<stop offset="1" stop-color="#8F0505"/>
</linearGradient>
<linearGradient id="paint2_linear_295_164" x1="105.714" y1="200.405" x2="211.696" y2="215.307" gradientUnits="userSpaceOnUse">
<stop stop-color="#E10909"/>
<stop offset="1" stop-color="#8F0505"/>
</linearGradient>
<linearGradient id="paint3_linear_295_164" x1="294.824" y1="276.111" x2="432.393" y2="278.099" gradientUnits="userSpaceOnUse">
<stop stop-color="#E10909"/>
<stop offset="1" stop-color="#8F0505"/>
</linearGradient>
<linearGradient id="paint4_linear_295_164" x1="158.379" y1="211.055" x2="307.03" y2="153.556" gradientUnits="userSpaceOnUse">
<stop stop-color="#E10909"/>
<stop offset="1" stop-color="#8F0505"/>
</linearGradient>
<linearGradient id="paint5_linear_295_164" x1="201.927" y1="205.936" x2="372.811" y2="170.62" gradientUnits="userSpaceOnUse">
<stop stop-color="#E10909"/>
<stop offset="1" stop-color="#8F0505"/>
</linearGradient>
<linearGradient id="paint6_linear_295_164" x1="244.958" y1="228.132" x2="303.882" y2="235.89" gradientUnits="userSpaceOnUse">
<stop stop-color="#E10909"/>
<stop offset="1" stop-color="#8F0505"/>
</linearGradient>
<linearGradient id="paint7_linear_295_164" x1="273.422" y1="242.354" x2="339.436" y2="250.414" gradientUnits="userSpaceOnUse">
<stop stop-color="#E10909"/>
<stop offset="1" stop-color="#8F0505"/>
</linearGradient>
<linearGradient id="paint8_linear_295_164" x1="272.457" y1="166.801" x2="296.205" y2="171.227" gradientUnits="userSpaceOnUse">
<stop stop-color="#E10909"/>
<stop offset="1" stop-color="#8F0505"/>
</linearGradient>
<linearGradient id="paint9_linear_295_164" x1="289.321" y1="181.772" x2="312.76" y2="186.214" gradientUnits="userSpaceOnUse">
<stop stop-color="#E10909"/>
<stop offset="1" stop-color="#8F0505"/>
</linearGradient>
<linearGradient id="paint10_linear_295_164" x1="308.312" y1="196.674" x2="330.471" y2="201.023" gradientUnits="userSpaceOnUse">
<stop stop-color="#E10909"/>
<stop offset="1" stop-color="#8F0505"/>
</linearGradient>
<linearGradient id="paint11_linear_295_164" x1="322.643" y1="210.76" x2="347.005" y2="215.293" gradientUnits="userSpaceOnUse">
<stop stop-color="#E10909"/>
<stop offset="1" stop-color="#8F0505"/>
</linearGradient>
<linearGradient id="paint12_linear_295_164" x1="1.08749" y1="258.922" x2="113.585" y2="258.922" gradientUnits="userSpaceOnUse">
<stop stop-color="#E10909"/>
<stop offset="1" stop-color="#8F0505"/>
</linearGradient>
</defs>
</svg>
