<svg width="465" height="267" viewBox="0 0 465 267" fill="none" xmlns="http://www.w3.org/2000/svg">
<path d="M234.988 204.11C185.806 187.021 130.904 167.353 108.448 159.254C100.251 156.406 96.07 147.249 98.8063 138.717L100.924 132.113C102.32 127.76 102.031 123.02 101.601 118.43C101.085 112.929 101.53 104.719 104.889 93.1221C111.645 70.2819 130.451 27.6259 131.391 25.5819C134.212 18.5614 144.294 6.65543 161.883 13.952C168.372 16.7993 172.213 20.8009 173.15 25.8677C174.836 34.1201 174.161 44.0742 180.665 49.3934L195.721 61.7072C201.7 66.5972 209.843 67.6434 216.685 64.4009L253.842 46.7926C260.163 43.9512 267.336 44.6655 272.629 49.4677L397.56 155.826C398.95 157.01 400.479 157.982 402.083 158.837C411.409 163.807 438.962 180.941 434.819 204.201C430.797 225.621 423.871 245.439 398.764 244.716C395.946 244.626 393.384 244.625 390.566 244.535C374.426 244.261 357.688 244.075 313.629 230.545C296.807 225.293 267.264 215.324 234.988 204.11ZM157.012 21.1495C146.715 17.5717 141.492 23.9928 139.485 27.2944C138.825 28.3792 138.324 29.5285 137.817 30.6966C134.18 39.071 118.274 75.6562 112.659 95.5256C109.056 107.86 109.159 115.454 109.82 119.467C110.221 121.903 111.941 124.395 111.194 126.723L106.405 141.654C105.123 145.653 107.085 150.187 111.184 151.611C148.497 164.872 273.33 209.727 316.108 222.813C359.143 235.987 374.43 236.261 390.911 236.357C393.729 236.448 396.291 236.449 399.109 236.539C415.164 237.08 422.256 228.283 426.963 202.953C430.216 185.711 405.628 170.056 396.065 165.252C395.35 165.004 394.825 164.373 394.244 163.878L267.673 56.0429C264.77 53.5528 260.928 53.1066 257.34 54.5272L206.433 78.3249C205.067 79.0354 203.444 78.768 202.334 77.7897L160.333 43.6388C159.394 43.0162 158.967 41.6827 158.797 40.4382C158.627 39.1938 159.311 37.9497 160.165 37.0612C161.447 35.7286 165.548 30.9307 165.037 27.1973C164.618 24.8679 162.424 23.3126 160.143 22.1416C159.17 21.6423 158.041 21.5071 157.012 21.1495Z" fill="url(#paint0_linear_167_29)"/>
<path d="M306.808 203.876C256.345 186.343 200.591 162.23 196.065 160.361L106.155 129.121C104.105 128.409 102.911 125.92 103.595 123.787C104.279 121.654 106.671 120.411 108.72 121.123L198.631 152.363L198.887 152.452C200.168 152.897 330.717 209.22 374.866 213.596C400.997 216.328 413.951 216.923 420.186 217.014C423.735 217.066 428.594 216.186 429.953 219.537C430.061 219.804 430.145 220.085 430.201 220.377C430.627 222.599 429.089 224.731 426.954 225.175C425.758 225.352 417.987 226.504 374.179 221.951C358.723 220.433 333.448 213.133 306.808 203.876Z" fill="url(#paint1_linear_167_29)"/>
<path d="M180.952 155.11C178.091 154.116 177.901 150.131 177.454 147.106C176.36 139.7 173.699 123.951 168.933 103.818C164.078 83.43 138.785 67.8764 127.311 61.6302C123.655 59.6396 118.157 57.08 119.424 53.131C120.147 51.5574 121.681 50.6163 123.284 50.5916C124.253 50.5767 125.142 51.0266 126.023 51.4555C133.549 55.1219 170.088 73.7174 176.79 101.511C183.525 130.223 186.078 149.779 186.164 150.401C186.477 152.036 185.589 153.573 184.249 154.449C183.287 155.077 182.05 155.491 180.952 155.11Z" fill="url(#paint2_linear_167_29)"/>
<path d="M293.573 198.982C292.549 198.626 291.695 197.737 291.183 196.67C290.159 194.536 291.271 191.959 293.235 191.16C300.581 187.785 338.334 171.27 347.471 172.074C349.691 172.253 353.448 172.966 358.572 173.857C373.686 176.442 402.036 181.255 420.141 179.841C422.447 179.753 424.24 181.265 424.58 183.754C424.665 186.154 423.212 188.019 420.821 188.374C401.776 190.054 373.939 185.419 357.202 182.567C352.334 181.765 348.577 181.052 346.613 180.962C342.102 180.534 319.384 189.364 298.824 198.246C297.161 198.964 295.306 199.584 293.573 198.982Z" fill="url(#paint3_linear_167_29)"/>
<path d="M324.323 184.773C266.688 164.748 172.177 107.018 170.981 106.307C169.103 105.062 168.506 102.484 169.447 100.44C170.387 98.3959 173.12 97.8638 175.084 98.8424C176.023 99.4651 272.412 158.44 329.023 177.22C331.072 177.932 332.267 180.422 331.583 182.555C331.135 183.951 329.955 184.966 328.618 185.301C327.227 185.649 325.692 185.249 324.323 184.773Z" fill="url(#paint4_linear_167_29)"/>
<path d="M206.498 126.945C205.217 126.5 204.364 125.611 203.937 124.277C203.255 121.966 204.537 119.744 206.758 119.034L261.078 102.349C263.726 101.431 266.163 104.375 268.528 105.97C275.134 110.427 292.13 120.409 328.529 133.489C349.8 141.255 360.832 142.975 366.479 143.032C369.764 143.066 371.921 139.291 375.069 138.399C376.722 138.056 378.374 138.778 379.353 140.195C379.944 141.051 380.135 142.122 380.081 143.155C379.993 144.848 379.401 146.866 377.797 148.533C374.038 152.265 364.472 155.46 326.22 141.577C297.471 131.183 280.312 122.743 270.745 117.133C265.018 113.776 258.179 112.34 251.912 114.183L210.601 126.329C209.406 126.68 208.206 127.315 206.973 127.073C206.813 127.042 206.654 126.999 206.498 126.945Z" fill="url(#paint5_linear_167_29)"/>
<path d="M238.173 144.469C236.893 144.024 236.039 143.135 235.613 141.802C234.93 139.49 235.956 137.18 238.177 136.47L290.021 118.628C292.241 117.918 294.461 118.985 295.144 121.297C295.826 123.608 294.8 125.918 292.579 126.628L240.735 144.471C239.796 144.737 238.942 144.736 238.173 144.469Z" fill="url(#paint6_linear_167_29)"/>
<path d="M266.946 159.504C265.665 159.059 264.812 158.17 264.385 156.836C263.703 154.525 264.985 152.304 267.206 151.593L325.796 133.132C328.017 132.422 330.151 133.757 330.834 136.068C331.516 138.379 330.234 140.601 328.013 141.311L270.921 158.902C269.811 159.244 268.703 159.837 267.546 159.655C267.343 159.623 267.142 159.572 266.946 159.504Z" fill="url(#paint7_linear_167_29)"/>
<path d="M264.077 77.9068C263.309 77.6398 262.37 77.0172 261.858 75.9503C260.748 74.0832 261.347 71.3281 263.141 70.1734L280.311 59.2485C282.104 58.0938 284.752 58.7172 285.861 60.5843C286.97 62.4514 286.371 65.2065 284.577 66.3612L267.408 77.2862C266.297 78.0856 265.102 78.2628 264.077 77.9068Z" fill="url(#paint8_linear_167_29)"/>
<path d="M280.638 92.8471C279.869 92.5801 278.93 91.9575 278.589 91.2463C277.48 89.3792 278.079 86.624 279.872 85.4694L296.957 73.9222C298.751 72.7675 301.398 73.3909 302.507 75.258C303.617 77.1251 303.018 79.8802 301.224 81.0349L284.139 92.5821C283.114 93.1149 281.919 93.2921 280.638 92.8471Z" fill="url(#paint9_linear_167_29)"/>
<path d="M299.761 107.789C298.992 107.522 298.309 106.988 297.712 106.188C296.346 104.232 296.86 101.743 298.739 100.322L314.457 88.5965C316.337 87.1752 318.728 87.7096 320.093 89.6657C321.459 91.6218 320.945 94.1103 319.066 95.5316L303.348 107.257C302.237 108.057 300.785 108.145 299.761 107.789Z" fill="url(#paint10_linear_167_29)"/>
<path d="M314.272 122.017C313.504 121.75 312.565 121.128 312.053 120.061C310.943 118.194 311.542 115.438 313.336 114.284L331.189 103.004C332.983 101.849 335.63 102.472 336.739 104.339C337.849 106.207 337.25 108.962 335.456 110.116L317.603 121.397C316.493 122.196 315.297 122.373 314.272 122.017Z" fill="url(#paint11_linear_167_29)"/>
<path d="M84.7863 76.1328H26.5934M74.0665 130.326H3.62244M132.259 197.271H18.9364" stroke="url(#paint12_linear_167_29)" stroke-width="7" stroke-linecap="round" stroke-linejoin="round"/>
<defs>
<linearGradient id="paint0_linear_167_29" x1="64.6692" y1="103.169" x2="448.783" y2="103.169" gradientUnits="userSpaceOnUse">
<stop stop-color="#E10909"/>
<stop offset="1" stop-color="#8F0505"/>
</linearGradient>
<linearGradient id="paint1_linear_167_29" x1="70.4399" y1="114.669" x2="206.64" y2="-11.9441" gradientUnits="userSpaceOnUse">
<stop stop-color="#E10909"/>
<stop offset="1" stop-color="#8F0505"/>
</linearGradient>
<linearGradient id="paint2_linear_167_29" x1="93.2832" y1="103.726" x2="199.266" y2="118.627" gradientUnits="userSpaceOnUse">
<stop stop-color="#E10909"/>
<stop offset="1" stop-color="#8F0505"/>
</linearGradient>
<linearGradient id="paint3_linear_167_29" x1="282.393" y1="179.431" x2="419.963" y2="181.419" gradientUnits="userSpaceOnUse">
<stop stop-color="#E10909"/>
<stop offset="1" stop-color="#8F0505"/>
</linearGradient>
<linearGradient id="paint4_linear_167_29" x1="145.948" y1="114.374" x2="294.6" y2="56.8753" gradientUnits="userSpaceOnUse">
<stop stop-color="#E10909"/>
<stop offset="1" stop-color="#8F0505"/>
</linearGradient>
<linearGradient id="paint5_linear_167_29" x1="189.496" y1="109.256" x2="360.38" y2="73.9399" gradientUnits="userSpaceOnUse">
<stop stop-color="#E10909"/>
<stop offset="1" stop-color="#8F0505"/>
</linearGradient>
<linearGradient id="paint6_linear_167_29" x1="232.528" y1="131.452" x2="291.451" y2="139.21" gradientUnits="userSpaceOnUse">
<stop stop-color="#E10909"/>
<stop offset="1" stop-color="#8F0505"/>
</linearGradient>
<linearGradient id="paint7_linear_167_29" x1="260.992" y1="145.673" x2="327.006" y2="153.733" gradientUnits="userSpaceOnUse">
<stop stop-color="#E10909"/>
<stop offset="1" stop-color="#8F0505"/>
</linearGradient>
<linearGradient id="paint8_linear_167_29" x1="260.026" y1="70.1199" x2="283.775" y2="74.5467" gradientUnits="userSpaceOnUse">
<stop stop-color="#E10909"/>
<stop offset="1" stop-color="#8F0505"/>
</linearGradient>
<linearGradient id="paint9_linear_167_29" x1="276.89" y1="85.0923" x2="300.329" y2="89.5343" gradientUnits="userSpaceOnUse">
<stop stop-color="#E10909"/>
<stop offset="1" stop-color="#8F0505"/>
</linearGradient>
<linearGradient id="paint10_linear_167_29" x1="295.882" y1="99.9941" x2="318.04" y2="104.343" gradientUnits="userSpaceOnUse">
<stop stop-color="#E10909"/>
<stop offset="1" stop-color="#8F0505"/>
</linearGradient>
<linearGradient id="paint11_linear_167_29" x1="310.212" y1="114.081" x2="334.575" y2="118.613" gradientUnits="userSpaceOnUse">
<stop stop-color="#E10909"/>
<stop offset="1" stop-color="#8F0505"/>
</linearGradient>
<linearGradient id="paint12_linear_167_29" x1="-11.3428" y1="162.242" x2="101.155" y2="162.242" gradientUnits="userSpaceOnUse">
<stop stop-color="#E10909"/>
<stop offset="1" stop-color="#8F0505"/>
</linearGradient>
</defs>
</svg>
