<svg width="401" height="401" viewBox="0 0 401 401" fill="none" xmlns="http://www.w3.org/2000/svg">
<rect x="0.531738" y="0.143555" width="400" height="400" fill="#A60C0C"/>
<path d="M262.69 237.844L259.66 218.973C258.841 209.199 249.502 199.24 244.284 191.743C247.004 189.187 253.171 183.344 255.851 180.793C244.02 178.398 233.141 172.262 224.633 163.183C216.126 154.105 210.385 142.506 208.161 129.901L167.309 178.739C172.472 181.188 177.122 184.712 180.987 189.103C184.786 184.931 193.693 175.571 197.603 171.357C200.184 168.687 203.649 167.206 207.247 167.234C210.845 167.261 214.289 168.796 216.833 171.507C219.378 174.217 220.819 177.884 220.845 181.717C220.871 185.549 219.48 189.239 216.973 191.988C210.896 198.437 202.92 206.958 196.823 213.4C198.816 219.017 201.419 224.366 204.58 229.338L223.17 211.738L225.143 217.262C226.551 221.33 226.509 225.806 225.026 229.843C223.543 233.88 220.722 237.198 217.096 239.168C213.47 241.138 209.292 241.623 205.353 240.532C201.413 239.441 197.987 236.85 195.721 233.248C192.308 227.659 189.801 219.695 186.954 214.329C180.952 201.194 157.611 171.175 149.086 196.29C148.42 201.062 148.813 205.935 150.234 210.516C154.255 222.85 160.232 234.359 167.906 244.542C169.866 247.59 171.659 250.757 173.276 254.026C181.265 267.78 178.046 277.139 182.684 289.958C184.895 295.561 188.964 300.102 194.115 302.717C194.987 303.157 220.186 317.335 226.291 333.614C226.6 334.478 227.18 335.203 227.932 335.666C228.685 336.129 229.564 336.302 230.422 336.156C243.733 333.858 275.68 325.352 284.492 296.948C285.292 294.907 284.015 293.07 282.978 291.522C272.669 275.392 265.748 257.083 262.69 237.844Z" fill="#FFFAFA"/>
<path d="M204.075 178.299C200.054 182.599 190.937 192.281 187 196.485C188.861 199.075 190.592 201.768 192.187 204.552L210.455 185.094C211.279 184.188 211.735 182.974 211.726 181.713C211.716 180.452 211.242 179.245 210.404 178.353C209.567 177.462 208.434 176.956 207.25 176.946C206.066 176.936 204.926 177.422 204.075 178.299Z" fill="#FFFAFA"/>
<path d="M144.083 221.222C142.721 217.767 141.616 214.204 140.779 210.565C138.039 213.811 131.848 221.155 129.212 224.351C125.175 229.22 122.814 235.408 122.518 241.896C122.222 248.384 124.009 254.787 127.584 260.05C123.656 264.026 118.415 266.194 112.996 266.083C107.578 265.972 102.419 263.591 98.637 259.457C94.8554 255.322 92.7561 249.767 92.7939 243.995C92.8317 238.223 95.0037 232.699 98.8391 228.621L113.929 212.547C117.534 208.679 120.387 204.091 122.324 199.047C124.262 194.002 125.246 188.6 125.22 183.15C125.194 177.7 124.158 172.309 122.173 167.286C120.187 162.263 117.29 157.706 113.649 153.877C109.291 149.486 103.174 156.634 107.439 161.086C112.951 167.013 116.043 175.018 116.043 183.36C116.043 191.702 112.951 199.707 107.438 205.634L92.3482 221.708C65.5622 252.153 105.177 295.014 134.159 266.922C139.105 270.525 145.038 272.266 151.018 271.869C156.999 271.472 162.683 268.96 167.171 264.732L167.722 264.194C160.61 246.544 155.873 248.675 144.083 221.222Z" fill="#FFFAFA"/>
<path d="M245.661 69.2818C249.247 73.107 256.481 80.8006 260.074 84.6314C260.75 85.3022 261.223 86.173 261.431 87.1319C261.64 88.0908 261.575 89.0943 261.244 90.0135C260.914 90.9328 260.333 91.7259 259.576 92.2913C258.82 92.8566 257.922 93.1684 256.998 93.1866C254.611 93.4304 252.325 90.0125 250.756 88.4933C247.39 84.8752 240.776 78.0868 237.536 74.3654C232.4 78.2484 227.994 83.1237 224.547 88.738C225.144 88.9335 236.737 101.039 240.887 105.457C241.674 106.331 242.131 107.482 242.171 108.692C242.211 109.901 241.832 111.084 241.105 112.015C240.379 112.946 239.356 113.559 238.233 113.738C237.109 113.917 235.962 113.649 235.012 112.986C231.619 109.582 223.779 101.076 220.232 97.3422C205.891 131.744 231.495 172.862 266.868 172.09C273.614 172.105 280.295 170.676 286.512 167.886C286.512 167.886 271.745 152.246 271.779 152.145C271.152 151.139 270.896 149.922 271.059 148.728C271.222 147.533 271.793 146.445 272.662 145.67C273.531 144.896 274.638 144.49 275.77 144.53C276.903 144.57 277.982 145.053 278.801 145.887C280.654 147.87 294.372 162.017 294.591 163.291C299.837 159.586 304.409 154.898 308.085 149.456C303.235 144.556 296.465 137.127 291.699 132.15C290.868 131.223 290.412 129.987 290.428 128.706C290.445 127.425 290.932 126.202 291.785 125.3C292.638 124.397 293.79 123.887 294.993 123.879C296.195 123.871 297.353 124.366 298.217 125.257C301.883 129.181 309.149 136.886 312.813 140.802C332.495 96.7273 287.789 47.8583 245.661 69.2818Z" fill="#FFFAFA"/>
</svg>
