<svg width="187" height="136" viewBox="0 0 187 136" fill="none" xmlns="http://www.w3.org/2000/svg">
<path fill-rule="evenodd" clip-rule="evenodd" d="M69.6093 15.0464L84.6547 30.0918H152.359L167.405 15.0464H69.6093ZM110.984 120.364V75.2281L50.8025 15.0464V0.000976562H186.211V15.0464L126.03 75.2281V120.364H163.643V135.41H73.3707V120.364H110.984ZM42.7058 46.8279C47.4024 46.8279 52.4904 48.7848 56.4043 52.6987C63.8406 60.135 63.8406 72.6593 56.4043 80.0956L34.0954 102.405C26.2677 110.232 14.1347 110.232 6.30705 102.405C-1.52064 94.5768 -1.52064 82.4439 6.30705 74.6162L29.0073 52.6987C32.5298 48.7848 38.0092 46.8279 42.7058 46.8279ZM39.9661 85.575L50.9249 74.6162C55.2301 69.9196 55.2301 62.8747 50.5335 57.7867C48.1852 55.8297 45.0541 54.6556 42.3144 54.6556C39.5747 54.6556 36.4437 55.8297 34.4867 57.7867L12.1778 80.0956C9.43812 82.4439 8.65535 85.9663 8.65535 89.0974L25.8763 71.8765L39.9661 85.575ZM68.3822 74.8526C69.0787 72.1017 69.7113 69.6033 69.7113 66.7885L69.7114 66.7885C70.8855 67.5713 72.0597 68.3541 74.0166 69.1368C81.8443 76.9645 81.8443 89.0974 74.0166 96.9251L51.7077 119.234C43.88 127.062 31.747 127.062 23.9194 119.234C22.7452 118.06 21.9624 116.886 21.1797 115.712C27.8332 115.712 34.8781 112.972 39.9661 107.884L50.9249 96.9251L56.7957 102.796L67.7544 91.8371C72.0597 87.5319 72.0597 80.487 68.1458 75.7904C68.2249 75.474 68.304 75.1617 68.3822 74.8526Z" fill="#F5E9E9"/>
</svg>
