<svg width="401" height="401" viewBox="0 0 401 401" fill="none" xmlns="http://www.w3.org/2000/svg">
<rect x="0.686523" y="0.878906" width="400" height="400" fill="#A60C0C"/>
<path d="M115.816 266.769C148.14 325.935 198.049 345.071 198.928 345.381C200.064 345.795 201.309 345.795 202.445 345.381C203.325 345.071 253.285 325.935 285.557 266.717L250.957 240.909C249.853 240.093 249.118 238.872 248.915 237.514C248.711 236.156 249.055 234.773 249.871 233.669C250.687 232.564 251.909 231.83 253.266 231.626C254.624 231.422 256.008 231.766 257.112 232.583L290.315 257.408C294.006 249.699 297.218 241.771 299.935 233.669L257.577 191.828C257.089 191.354 256.7 190.788 256.432 190.163C256.164 189.538 256.023 188.866 256.015 188.185C256.008 187.505 256.136 186.83 256.39 186.2C256.645 185.569 257.022 184.995 257.5 184.51C257.977 184.026 258.546 183.641 259.173 183.377C259.8 183.114 260.473 182.977 261.153 182.974C261.834 182.972 262.507 183.104 263.136 183.363C263.765 183.622 264.337 184.003 264.818 184.484L303.348 222.549C313.537 185.932 316.537 139.282 305.314 80.4259C304.569 76.5801 302.75 73.0237 300.068 70.1681C297.387 67.3126 293.952 65.2745 290.16 64.2897C275.73 60.5659 248.475 56.0664 200.687 56.0664C152.898 56.0664 125.643 60.5659 111.213 64.2897C107.422 65.2745 103.986 67.3126 101.305 70.1681C98.623 73.0237 96.8045 76.5801 96.0595 80.4259C84.8366 139.282 87.8362 185.88 98.0248 222.497L136.607 184.484C137.088 184.003 137.66 183.622 138.288 183.363C138.917 183.104 139.591 182.972 140.272 182.974C140.952 182.977 141.625 183.114 142.252 183.377C142.879 183.641 143.448 184.026 143.925 184.51C144.403 184.995 144.78 185.569 145.034 186.2C145.289 186.83 145.417 187.505 145.409 188.185C145.402 188.866 145.261 189.538 144.992 190.163C144.724 190.788 144.335 191.354 143.848 191.828L101.49 233.669C104.144 241.77 107.341 249.684 111.058 257.356L144.21 232.583C145.314 231.76 146.7 231.409 148.063 231.608C149.425 231.807 150.653 232.539 151.476 233.643C152.299 234.747 152.65 236.133 152.451 237.496C152.252 238.858 151.52 240.086 150.416 240.909L115.816 266.769ZM240.458 278.56C240.029 279.429 239.366 280.16 238.544 280.672C237.721 281.184 236.772 281.456 235.804 281.457C235.015 281.464 234.236 281.287 233.528 280.94L222.253 275.561C218.613 273.812 214.465 273.426 210.565 274.475L202.031 276.802C201.153 277.061 200.22 277.061 199.342 276.802L190.808 274.475C186.908 273.429 182.761 273.814 179.12 275.561L167.845 280.94C167.233 281.24 166.568 281.416 165.888 281.458C165.208 281.5 164.526 281.408 163.882 281.185C163.237 280.963 162.644 280.616 162.134 280.163C161.625 279.71 161.21 279.162 160.913 278.548C160.616 277.934 160.444 277.268 160.406 276.588C160.368 275.907 160.464 275.226 160.691 274.583C160.917 273.94 161.268 273.348 161.723 272.842C162.179 272.335 162.73 271.923 163.346 271.63L174.62 266.2C180.509 263.401 187.203 262.796 193.498 264.493L200.687 266.458L207.875 264.493C214.17 262.796 220.864 263.401 226.753 266.2L238.028 271.63C238.642 271.926 239.193 272.339 239.648 272.847C240.102 273.355 240.453 273.948 240.678 274.592C240.904 275.235 241.001 275.917 240.963 276.598C240.925 277.279 240.754 277.946 240.458 278.56ZM135.004 150.091C135.004 148.719 135.549 147.404 136.519 146.434C137.488 145.464 138.804 144.919 140.176 144.919C141.547 144.919 142.863 145.464 143.833 146.434C144.803 147.404 145.347 148.719 145.347 150.091C145.351 154.863 147.248 159.439 150.623 162.814C153.997 166.188 158.573 168.086 163.346 168.089H181.344V143.057C181.343 140.945 180.503 138.92 179.01 137.426C177.516 135.933 175.491 135.094 173.379 135.093H119.281C117.91 135.093 116.594 134.548 115.624 133.578C114.654 132.608 114.109 131.292 114.109 129.921C114.109 128.549 114.654 127.234 115.624 126.264C116.594 125.294 117.91 124.749 119.281 124.749H173.379C178.232 124.758 182.884 126.69 186.315 130.121C189.747 133.553 191.678 138.204 191.688 143.057V168.089H209.686V143.057C209.695 138.204 211.626 133.553 215.058 130.121C218.49 126.69 223.141 124.758 227.994 124.749H282.092C283.464 124.749 284.779 125.294 285.749 126.264C286.719 127.234 287.264 128.549 287.264 129.921C287.264 131.292 286.719 132.608 285.749 133.578C284.779 134.548 283.464 135.093 282.092 135.093H227.994C225.882 135.094 223.857 135.933 222.363 137.426C220.87 138.92 220.03 140.945 220.029 143.057V168.089H238.028C242.8 168.086 247.376 166.188 250.75 162.814C254.125 159.439 256.022 154.863 256.026 150.091C256.026 148.719 256.571 147.404 257.54 146.434C258.51 145.464 259.826 144.919 261.198 144.919C262.569 144.919 263.885 145.464 264.855 146.434C265.824 147.404 266.369 148.719 266.369 150.091C266.358 157.604 263.368 164.807 258.056 170.119C252.743 175.432 245.541 178.422 238.028 178.433H220.029V222.549C220.029 227.679 217.991 232.599 214.364 236.227C210.737 239.854 205.817 241.892 200.687 241.892C195.557 241.892 190.637 239.854 187.009 236.227C183.382 232.599 181.344 227.679 181.344 222.549V178.433H163.346C155.832 178.422 148.63 175.432 143.318 170.119C138.005 164.807 135.015 157.604 135.004 150.091Z" fill="#FFFAFA"/>
<path d="M200.687 231.548C203.073 231.547 205.361 230.598 207.048 228.911C208.735 227.223 209.684 224.935 209.686 222.549V178.433H191.688V222.549C191.689 224.935 192.638 227.223 194.325 228.911C196.012 230.598 198.3 231.547 200.687 231.548Z" fill="#FFFAFA"/>
<path d="M107.903 300.283C113.959 305.386 121.603 308.22 129.522 308.299C130.453 308.299 131.383 308.248 132.314 308.196C129.263 304.679 126.211 300.955 123.16 296.973C97.8697 263.769 76.2513 213.602 78.7338 140.316C78.8372 136.127 79.0958 131.835 79.4061 127.49C75.7912 129.057 72.5988 131.458 70.0907 134.497C67.5826 137.535 65.83 141.125 64.9766 144.971C61.2011 160.694 70.1485 269.924 107.903 300.283Z" fill="#FFFAFA"/>
<path d="M322.639 140.265C325.122 213.55 303.503 263.717 278.213 296.973C275.213 300.955 272.11 304.679 269.059 308.196C269.99 308.247 270.92 308.299 271.851 308.299C279.77 308.22 287.414 305.386 293.47 300.283C331.225 269.924 340.172 160.694 336.396 144.919C335.543 141.073 333.79 137.483 331.282 134.445C328.774 131.406 325.582 129.005 321.967 127.438C322.277 131.783 322.484 136.076 322.639 140.265Z" fill="#FFFAFA"/>
</svg>
