<svg width="157" height="176" viewBox="0 0 157 176" fill="none" xmlns="http://www.w3.org/2000/svg">
<path d="M65.0035 167.098L74.2952 120.64L65.0035 83.473L37.1285 46.3063M37.1285 46.3063H74.2952L102.17 18.4313M37.1285 46.3063L9.25354 83.473L18.5452 120.64M88.2327 83.473H111.462L148.629 102.056M9.25354 18.4313C9.25354 20.8956 10.2325 23.259 11.975 25.0015C13.7175 26.744 16.0809 27.723 18.5452 27.723C21.0095 27.723 23.3729 26.744 25.1154 25.0015C26.8579 23.259 27.8369 20.8956 27.8369 18.4313C27.8369 15.967 26.8579 13.6036 25.1154 11.8611C23.3729 10.1186 21.0095 9.13965 18.5452 9.13965C16.0809 9.13965 13.7175 10.1186 11.975 11.8611C10.2325 13.6036 9.25354 15.967 9.25354 18.4313Z" stroke="#F5E9E9" stroke-width="16.6667" stroke-linecap="round" stroke-linejoin="round"/>
</svg>
