<svg width="401" height="401" viewBox="0 0 401 401" fill="none" xmlns="http://www.w3.org/2000/svg">
<rect x="0.531982" y="0.144043" width="400" height="400" fill="#A60C0C"/>
<path d="M114.975 127.107L29.813 257.579C31.766 258.342 33.2797 260.108 33.619 262.331L37.264 286.002C37.7729 289.328 35.5024 292.445 32.1793 292.955C31.8704 293.007 31.5573 293.029 31.2484 293.029C28.2994 293.029 25.7113 290.871 25.2502 287.854L21.6052 264.188C21.192 261.555 22.5404 259.066 24.7631 257.885C24.8153 257.749 24.8805 257.614 24.9632 257.488L122.448 108.145C122.966 107.351 123.936 107.042 124.797 107.321L124.849 107.212L274.569 107.146L199.594 256.681C196.915 249.811 190.233 244.977 182.678 244.977C181.708 244.977 180.725 245.051 179.864 245.195C175.036 245.945 170.799 248.521 167.915 252.466C165.031 256.407 163.861 261.232 164.605 266.054L166.215 276.468L41.244 276.433L114.975 127.107ZM189.738 262.745C189.516 259.389 186.614 256.817 183.27 257.069C179.92 257.292 177.38 260.186 177.606 263.543L179.177 287.445C179.372 290.487 181.765 292.863 184.705 293.12C185.014 293.146 185.323 293.151 185.64 293.125C188.998 292.907 191.53 289.999 191.312 286.643L189.742 262.741L189.738 262.745ZM294.987 127.905L371.354 257.536C369.349 258.277 367.787 260.069 367.448 262.335L363.803 286.006C363.285 289.332 365.564 292.449 368.879 292.959C369.196 293.011 369.505 293.033 369.818 293.033C372.768 293.033 375.356 290.875 375.817 287.859L379.462 264.188C379.866 261.551 378.518 259.057 376.286 257.88C376.247 257.776 376.204 257.671 376.143 257.571L289.384 110.298C288.884 109.448 287.875 109.095 286.979 109.391L286.935 109.287L286.857 109.444C286.761 109.483 286.666 109.522 286.574 109.575C285.757 110.058 285.409 111.017 285.648 111.889L204.178 276.472L242.486 276.481L282.812 191.585L319.915 276.481H358.631L294.987 127.905Z" fill="#FFFAFA"/>
</svg>
