<svg width="105" height="184" viewBox="0 0 105 184" fill="none" xmlns="http://www.w3.org/2000/svg">
<path d="M52.1218 0.989258C23.4553 0.989258 0.095459 24.3491 0.095459 53.0156C0.095459 55.6028 1.12321 58.084 2.95261 59.9134C4.78202 61.7428 7.26323 62.7706 9.8504 62.7706C12.4376 62.7706 14.9188 61.7428 16.7482 59.9134C18.5776 58.084 19.6053 55.6028 19.6053 53.0156C19.6053 35.1186 34.2248 20.4991 52.1218 20.4991C70.0189 20.4991 84.6383 35.1186 84.6383 53.0156C84.6383 60.7806 82.6093 65.6971 79.8519 69.534C76.8344 73.7611 72.7373 77.0778 67.2485 81.5001L67.1184 81.6041C61.9158 85.8052 55.5035 91.0209 50.6001 98.3566C45.5145 106.004 42.3669 115.434 42.3669 127.804V134.307C42.3669 136.894 43.3946 139.375 45.224 141.205C47.0535 143.034 49.5347 144.062 52.1218 144.062C54.709 144.062 57.1902 143.034 59.0196 141.205C60.849 139.375 61.8768 136.894 61.8768 134.307V127.804C61.8768 119.037 64.0098 113.431 66.8453 109.178C69.8758 104.639 74.0249 101.114 79.3836 96.7828L80.2681 96.0675C85.1326 92.1395 91.1156 87.327 95.7199 80.8887C100.897 73.6701 104.148 64.7606 104.148 53.0156C104.148 24.3491 80.7884 0.989258 52.1218 0.989258ZM52.1218 183.082C55.5714 183.082 58.8797 181.711 61.3189 179.272C63.7581 176.833 65.1284 173.525 65.1284 170.075C65.1284 166.625 63.7581 163.317 61.3189 160.878C58.8797 158.439 55.5714 157.068 52.1218 157.068C48.6723 157.068 45.364 158.439 42.9248 160.878C40.4856 163.317 39.1152 166.625 39.1152 170.075C39.1152 173.525 40.4856 176.833 42.9248 179.272C45.364 181.711 48.6723 183.082 52.1218 183.082Z" fill="#F5E9E9"/>
</svg>
