<svg width="401" height="401" viewBox="0 0 401 401" fill="none" xmlns="http://www.w3.org/2000/svg">
<rect x="0.680908" y="0.258789" width="400" height="400" fill="#A60C0C"/>
<path d="M60.853 203.479C60.853 166.787 75.4287 131.599 101.374 105.654C127.318 79.709 162.507 65.1333 199.199 65.1333C235.89 65.1333 271.079 79.709 297.024 105.654C322.969 131.599 337.544 166.787 337.544 203.479C337.544 240.171 322.969 275.359 297.024 301.304C271.079 327.249 235.89 341.825 199.199 341.825C162.507 341.825 127.318 327.249 101.374 301.304C75.4287 275.359 60.853 240.171 60.853 203.479ZM149.032 97.6978C133.505 105.082 119.788 115.784 108.848 129.049L122.619 173.83L144.031 180.961L188.557 147.119V124.047L149.032 97.6978ZM82.9032 216.973C85.0316 235.384 91.4168 252.517 101.058 267.31H141.583L155.098 253.794L137.582 201.223L115.787 193.965L82.9032 216.973ZM175.488 318.114C191.131 321.334 207.266 321.334 222.909 318.114L239.723 280.314L226.719 267.331H171.679L158.695 280.314L175.488 318.114ZM297.318 267.331C306.871 252.671 313.003 236.049 315.26 218.697L282.419 194.05L260.816 201.244L243.299 253.816L256.814 267.331H297.318ZM289.23 128.708C278.343 115.594 264.733 105.005 249.344 97.6765L209.841 124.047V147.119L254.367 180.961L275.736 173.852L289.23 128.708Z" fill="white"/>
</svg>
