<svg width="242" height="84" viewBox="0 0 242 84" fill="none" xmlns="http://www.w3.org/2000/svg">
<path fill-rule="evenodd" clip-rule="evenodd" d="M97.4844 0.63735C84.5091 1.0672 72.6861 12.4558 72.186 28.8069C72.1734 28.9275 72.1911 29.6578 72.186 29.8301C72.1852 29.8676 72.1562 49.451 72.1562 49.451V57.1303C72.1562 59.8771 72.1102 60.066 70.666 61.7696C66.1437 66.5684 58.645 69.8209 49.0981 70.2588C37.634 70.7848 23.8039 67.211 11.1083 58.4018C3.79276 53.3233 -3.82369 64.2984 3.49342 69.3745C18.5077 79.7927 35.0384 84.269 49.7091 83.5958C64.3797 82.9229 77.6529 77.0007 84.5347 65.684C84.7005 65.4187 84.8452 65.1396 84.9718 64.8544C84.9769 64.8544 84.982 64.8277 84.9871 64.825C85.0128 64.766 85.0326 64.7043 85.0568 64.648C85.3471 63.8489 85.4934 63.8084 87.0934 63.8084H143.999C154.509 73.8069 166.739 80.3723 180.275 82.1579C195.119 84.1155 210.941 80.4178 227.305 71.6716C238.911 65.7993 229.644 48.4646 218.314 54.8525C204.45 62.2625 192.822 64.5732 182.768 63.2473C173.831 62.0684 165.69 58.0269 157.748 50.6054C151.542 44.4589 153.623 40.6429 157.774 39.5682C182.095 34.0878 205.326 37.6908 229.317 44.5702C241.713 48.389 247.109 29.5639 234.573 26.2361C220.608 22.2316 206.168 19.0926 191.263 18.1343C187.537 17.8958 183.782 17.7931 179.997 17.8464C169.11 17.9992 157.978 19.4792 146.612 22.7192H127.329C129.847 30.5904 130.769 40.1209 129.788 51.3705C129.605 54.283 128.256 56.7126 126.336 58.1707C124.41 59.6326 122.045 60.177 119.784 59.9789C117.523 59.7806 115.29 58.8279 113.649 57.0531C112.008 55.2782 111.094 52.6497 111.429 49.7413C112.505 37.3674 110.59 29.0041 108.001 24.0306C107.754 23.5552 107.499 23.1372 107.246 22.7192H86.5774C88.9473 15.4927 94.8894 13.0213 100.297 14.2004C103.721 14.9468 107.367 17.3054 110.256 22.8585C113.146 28.4111 115.078 37.2631 113.957 50.0293C112.912 59.115 126.701 60.3253 127.255 51.1967C128.537 36.5873 126.513 25.1682 122.103 16.6938C117.694 8.21961 110.697 2.8031 103.143 1.15634C101.255 0.744448 99.3562 0.575445 97.4844 0.63735ZM50.0617 26.2139C40.6822 26.2139 33.0537 33.8635 33.0537 43.3013C33.0537 52.681 40.6822 60.3095 50.0617 60.3095C59.4997 60.3068 67.0697 52.6783 67.0697 43.3013C67.0697 33.8635 59.4997 26.2139 50.0617 26.2139Z" fill="#F5E9E9"/>
</svg>
