<svg width="200" height="200" viewBox="0 0 200 200" fill="none" xmlns="http://www.w3.org/2000/svg">
<path d="M175.418 155.891L108.844 32.2578C104.125 23.4922 91.5549 23.4922 86.8322 32.2578L20.2619 155.891C19.2374 157.794 18.7237 159.93 18.7711 162.09C18.8184 164.251 19.4252 166.363 20.5322 168.219C21.6391 170.075 23.2085 171.613 25.087 172.681C26.9655 173.75 29.089 174.313 31.2502 174.316H164.41C166.573 174.317 168.699 173.756 170.58 172.688C172.462 171.621 174.034 170.084 175.143 168.227C176.252 166.37 176.861 164.258 176.909 162.095C176.957 159.933 176.444 157.795 175.418 155.891ZM97.8401 155.176C96.2949 155.176 94.7844 154.718 93.4997 153.859C92.2149 153.001 91.2136 151.781 90.6222 150.353C90.0309 148.925 89.8762 147.355 90.1777 145.839C90.4791 144.324 91.2232 142.932 92.3158 141.839C93.4084 140.746 94.8004 140.002 96.3159 139.701C97.8314 139.399 99.4022 139.554 100.83 140.145C102.257 140.737 103.477 141.738 104.336 143.023C105.194 144.308 105.653 145.818 105.653 147.363C105.653 149.435 104.829 151.422 103.364 152.888C101.899 154.353 99.9121 155.176 97.8401 155.176ZM106.324 76.6016L104.082 124.258C104.082 125.915 103.424 127.505 102.252 128.677C101.08 129.849 99.4898 130.508 97.8322 130.508C96.1746 130.508 94.5849 129.849 93.4128 128.677C92.2407 127.505 91.5822 125.915 91.5822 124.258L89.3401 76.6211C89.2897 75.4828 89.469 74.346 89.8673 73.2784C90.2656 72.2109 90.8748 71.2344 91.6585 70.4073C92.4422 69.5802 93.3845 68.9194 94.429 68.4642C95.4736 68.009 96.5991 67.7688 97.7385 67.7578H97.8205C98.9677 67.7572 100.103 67.9891 101.158 68.4393C102.213 68.8896 103.166 69.5489 103.959 70.3776C104.753 71.2063 105.37 72.1871 105.774 73.2608C106.177 74.3346 106.359 75.479 106.309 76.625L106.324 76.6016Z" fill="white"/>
</svg>
